<svg style="position: absolute; width: 0; height: 0; overflow: hidden;" version="1.1" xmlns="http://www.w3.org/2000/svg" xmlns:xlink="http://www.w3.org/1999/xlink">
<defs>
<symbol id="icon-categories" viewBox="0 0 16 16">
<path class="path1" d="M13 5H8l-.7-1.4c-.2-.4-.5-.6-.9-.6H3c-.5 0-1 .5-1 1v8c0 .6.5 1 1 1h10c.6 0 1-.4 1-1V6c0-.6-.4-1-1-1z"></path>
</symbol>
<symbol id="icon-posted" viewBox="0 0 16 16">
<path class="path1" d="M12 3h-1V2H9v1H7V2H5v1H4c-1.1 0-2 .9-2 2v6c0 1.1.9 2 2 2h8c1.1 0 2-.9 2-2V5c0-1.1-.9-2-2-2zM9 7c0 .4-.2.7-.4 1 .2.3.4.6.4 1v.5c0 .8-.7 1.5-1.5 1.5h-1C5.7 11 5 10.3 5 9.5V9h1v.5c0 .3.2.5.5.5h1c.3 0 .5-.2.5-.5V9c0-.3-.2-.5-.5-.5H7v-1h.5c.3 0 .5-.2.5-.5v-.5c0-.3-.2-.5-.5-.5h-1c-.3 0-.5.2-.5.5V7H5v-.5C5 5.7 5.7 5 6.5 5h1C8.3 5 9 5.7 9 6.5V7zm2 4h-1V5h1v6z"></path>
</symbol>
<symbol id="icon-author" viewBox="0 0 16 16">
<path class="path1" d="M8 8c1.7 0 3-1.3 3-3S9.7 2 8 2 5 3.3 5 5s1.3 3 3 3zm2 1H6c-1.7 0-3 1.3-3 3v2h10v-2c0-1.7-1.3-3-3-3z"></path>
</symbol>
<symbol id="icon-tags" viewBox="0 0 16 16">
<path class="path1" d="M11.3 4.3c-.2-.2-.4-.3-.7-.3H3c-.5 0-1 .5-1 1v6c0 .6.5 1 1 1h7.6c.3 0 .5-.1.7-.3L15 8l-3.7-3.7zM10 9c-.5 0-1-.5-1-1s.5-1 1-1 1 .5 1 1-.5 1-1 1z"></path>
</symbol>
<symbol id="icon-comments" viewBox="0 0 16 16">
<path class="path1" d="M7 3H3c-1.1 0-2 .9-2 2v7l2.4-2.4c.4-.4.9-.6 1.4-.6H6V8c0-1.7 1.3-3 3-3 0-1.1-.9-2-2-2zm6 3H9c-1.1 0-2 .9-2 2v2c0 1.1.9 2 2 2h2.2c.5 0 1 .2 1.4.6L15 15V8c0-1.1-.9-2-2-2z"></path>
</symbol>
<symbol id="icon-edit" viewBox="0 0 16 16">
<path class="path1" d="M12.6 6.9l.5-.5c.8-.8.8-2 0-2.8l-.7-.7c-.8-.8-2-.8-2.8 0l-.5.5 3.5 3.5zM8.4 4.1L2 10.5V14h3.5l6.4-6.4"></path>
</symbol>
<symbol id="icon-menu-toggle" viewBox="0 0 16 16">
<path class="path1" d="M0 14h16v-2H0v2zM0 2v2h16V2H0zm0 7h16V7H0v2z"></path>
</symbol>
<symbol id="icon-menu-toggle-close" viewBox="0 0 16 16">
<path class="path1" d="M14.7 2.7l-1.4-1.4L8 6.6 2.7 1.3 1.3 2.7 6.6 8l-5.3 5.3 1.4 1.4L8 9.4l5.3 5.3 1.4-1.4L9.4 8"></path>
</symbol>
<symbol id="icon-showsub-toggle" viewBox="0 0 16 16">
<path class="path1" d="M8 12.7L1.3 6l1.4-1.4L8 9.9l5.3-5.3L14.7 6"></path>
</symbol>
<symbol id="icon-sticky" viewBox="0 0 16 16">
<path class="path1" d="M12,8c0-0.5-0.5-1-1-1h-0.6l-0.3-3C10.6,3.9,11,3.5,11,3c0-0.5-0.5-1-1-1H6C5.5,2,5,2.5,5,3c0,0.5,0.4,0.9,0.9,1L5.6,7H5 C4.5,7,4,7.5,4,8v1h3v6l2-1V9h3V8z"></path>
</symbol>
<symbol id="icon-leaf" viewBox="0 0 33 68">
<path class="path1" d="M13.406647 1.812668c0 .437866-2.773315 3.430023-6.203217 6.641098L1 14.292176V43.9216l6.276306 5.765518 6.203217 5.692398-.145966 4.378632c-.145996 6.78714-.145996 6.933105 1.824585 6.933105 2.335175 0 2.919067-1.82437 2.2623-7.225067l-.510804-4.232635 3.50299-2.8462c1.970368-1.60551 4.962525-4.23288 6.71402-5.91125 1.751496-1.75149 3.430116-3.13817 3.86783-3.13817.36505 0 .657012-5.98436.657012-14.59585 0-9.48735-.291962-14.59585-.72989-14.59585-1.094695 0-14.303924-11.74972-14.011962-12.55249.072876-.29193-.65677-.58383-1.67862-.58383s-1.82437.3649-1.82437.80278zm7.516785 9.268372c2.700226 2.1893 5.473328 4.670685 6.05725 5.54631.802766 1.167816 1.02182 4.0869 1.02182 12.7715v11.238846l-4.52481 4.30574c-5.400482 5.03563-7.151947 5.400467-7.151947 1.67839 0-2.189193.65677-3.211028 4.013794-6.422057 2.18942-2.04346 4.014-4.23288 4.014-4.67058 0-1.45977-2.55423-1.09471-3.94092.4377-1.82459 2.04345-4.08689 2.48138-4.08689.80276 0-1.31357.72986-2.04323 5.76529-6.42208 1.82458-1.53264 2.33538-2.48137 2.04342-3.43012-.51081-1.16759-.65677-1.16759-2.18943-.07288-.87561.65678-2.335176 1.67839-3.21103 2.3354-2.335388 1.67839-3.356995.65678-2.043457-1.97058.6568-1.16758 1.38666-2.11631 1.67865-2.11631.29193 0 1.751465-1.09473 3.28412-2.40828 2.043212-1.67862 2.627135-2.70024 2.335174-3.64897-.65677-1.67862-1.31357-1.60552-4.013796.65678-1.24069 1.09471-2.48138 1.67839-2.7731 1.459533-.219087-.29195-.51105-2.262286-.51105-4.30574 0-3.35701-.218843-3.79494-1.6055-4.013797-1.60553-.219088-1.678406 0-1.678406 4.159773 0 2.481157-.29193 4.45172-.657014 4.45172-.437682 0-1.6055-.80276-2.700225-1.8246-2.043213-1.89746-3.21103-1.82437-3.21103.21909 0 1.09471 4.81677 5.911255 6.05725 5.98413.802767 0 .583895 4.378846-.291746 4.378846-.437928 0-1.60571-1.021604-2.62732-2.18942-.94876-1.240693-2.11633-2.043443-2.48138-1.751496-1.53241.87587-.437718 3.21103 2.62735 5.692417 2.2623 1.89748 3.28412 3.284134 3.28412 4.52483 0 2.2623-1.0947 2.2623-3.211248-.21907-1.094694-1.240697-2.11633-1.7515-2.84622-1.45955-1.82434.65678-.364806 3.28413 3.211274 5.91127 2.627106 2.04344 2.84619 2.40826 2.84619 5.76552 0 1.97033-.29193 3.42988-.65701 3.2839-1.16757-.364837-8.027557-7.15196-8.83032-8.53862.09494 2.64551.189636-20.44505-.27011-26.721374v2.481384l1.80252-1.88644c1.240692-1.09471 3.794952-3.57608 5.692413-5.473496 1.82459-1.82448 3.64896-3.21111 4.08689-2.919175.364835.218944 2.992185 2.18939 5.69241 4.37877z"></path>
</symbol>
</defs>
</svg>