<svg style="position: absolute; width: 0; height: 0; overflow: hidden;" version="1.1" xmlns="http://www.w3.org/2000/svg" xmlns:xlink="http://www.w3.org/1999/xlink">
<defs>
<symbol id="icon-categories" viewBox="0 0 16 16">
<path class="path1" d="M13 5H8l-.7-1.4c-.2-.4-.5-.6-.9-.6H3c-.5 0-1 .5-1 1v8c0 .6.5 1 1 1h10c.6 0 1-.4 1-1V6c0-.6-.4-1-1-1z"></path>
</symbol>
<symbol id="icon-posted" viewBox="0 0 16 16">
<path class="path1" d="M12 3h-1V2H9v1H7V2H5v1H4c-1.1 0-2 .9-2 2v6c0 1.1.9 2 2 2h8c1.1 0 2-.9 2-2V5c0-1.1-.9-2-2-2zM9 7c0 .4-.2.7-.4 1 .2.3.4.6.4 1v.5c0 .8-.7 1.5-1.5 1.5h-1C5.7 11 5 10.3 5 9.5V9h1v.5c0 .3.2.5.5.5h1c.3 0 .5-.2.5-.5V9c0-.3-.2-.5-.5-.5H7v-1h.5c.3 0 .5-.2.5-.5v-.5c0-.3-.2-.5-.5-.5h-1c-.3 0-.5.2-.5.5V7H5v-.5C5 5.7 5.7 5 6.5 5h1C8.3 5 9 5.7 9 6.5V7zm2 4h-1V5h1v6z"></path>
</symbol>
<symbol id="icon-author" viewBox="0 0 16 16">
<path class="path1" d="M8 8c1.7 0 3-1.3 3-3S9.7 2 8 2 5 3.3 5 5s1.3 3 3 3zm2 1H6c-1.7 0-3 1.3-3 3v2h10v-2c0-1.7-1.3-3-3-3z"></path>
</symbol>
<symbol id="icon-tags" viewBox="0 0 16 16">
<path class="path1" d="M11.3 4.3c-.2-.2-.4-.3-.7-.3H3c-.5 0-1 .5-1 1v6c0 .6.5 1 1 1h7.6c.3 0 .5-.1.7-.3L15 8l-3.7-3.7zM10 9c-.5 0-1-.5-1-1s.5-1 1-1 1 .5 1 1-.5 1-1 1z"></path>
</symbol>
<symbol id="icon-comments" viewBox="0 0 16 16">
<path class="path1" d="M7 3H3c-1.1 0-2 .9-2 2v7l2.4-2.4c.4-.4.9-.6 1.4-.6H6V8c0-1.7 1.3-3 3-3 0-1.1-.9-2-2-2zm6 3H9c-1.1 0-2 .9-2 2v2c0 1.1.9 2 2 2h2.2c.5 0 1 .2 1.4.6L15 15V8c0-1.1-.9-2-2-2z"></path>
</symbol>
<symbol id="icon-edit" viewBox="0 0 16 16">
<path class="path1" d="M12.6 6.9l.5-.5c.8-.8.8-2 0-2.8l-.7-.7c-.8-.8-2-.8-2.8 0l-.5.5 3.5 3.5zM8.4 4.1L2 10.5V14h3.5l6.4-6.4"></path>
</symbol>
<symbol id="icon-menu-toggle" viewBox="0 0 16 16">
<path class="path1" d="M0 14h16v-2H0v2zM0 2v2h16V2H0zm0 7h16V7H0v2z"></path>
</symbol>
<symbol id="icon-menu-toggle-close" viewBox="0 0 16 16">
<path class="path1" d="M14.7 2.7l-1.4-1.4L8 6.6 2.7 1.3 1.3 2.7 6.6 8l-5.3 5.3 1.4 1.4L8 9.4l5.3 5.3 1.4-1.4L9.4 8"></path>
</symbol>
</defs>
</svg>